<svg width="64" height="61" viewBox="0 0 64 61" fill="none" xmlns="http://www.w3.org/2000/svg">
<path d="M62.5032 28.6768L51.7083 18.1222V6.08333C51.7083 4.40433 50.3487 3.04167 48.6667 3.04167C46.9846 3.04167 45.625 4.40433 45.625 6.08333V12.1727L34.0636 0.866875C32.8804 -0.288958 30.9915 -0.288958 29.8114 0.866875L1.37179 28.6768C0.486667 29.5407 0 30.6995 0 31.9375C0 34.453 2.04704 36.5 4.5625 36.5H9.125V53.2292C9.125 57.4206 12.5347 60.8333 16.7292 60.8333H27.375C29.057 60.8333 30.4167 59.4707 30.4167 57.7917C30.4167 56.1127 29.057 54.75 27.375 54.75H16.7292C15.8927 54.75 15.2083 54.0687 15.2083 53.2292V33.4583C15.2083 31.7793 13.8487 30.4167 12.1667 30.4167H8.29463L31.9375 7.29392L58.2479 33.0234C59.4524 34.2035 61.3808 34.1762 62.5488 32.9747C63.726 31.7763 63.7016 29.8509 62.5032 28.6768Z" fill="white"/>
</svg>
